# xmcd
#
# Track frame offsets:
# 150
# 14080
# 29265
# 43352
# 52560
# 72930
# 81945
# 92815
# 105270
# 118162
# 133380
# 148127
#
# Disc length: 2144 seconds
#
#
# Revision: 0
# Processed by: cddbd v1.5.1PL2 Copyright (c) Steve Scherf et al.
# Submitted via: FreeRIP 2.944 
#
DISCID=ab085e0c
DTITLE=Liu and Léo - Liu and Léo
DYEAR=1970
DGENRE=Country
TTITLE0=Saudade da minha terra (Goiá-Belmonte) - Rasqueado
TTITLE1=Apenas um pecado (Goiá) - Guarânia
TTITLE2=Grão de areia (Goiá) - Polca
TTITLE3=Pecado louro (Goiá-Zacarias) - Guarânia
TTITLE4=Casinha de praia (Goiá) - Fox
TTITLE5=Capricho da vida (Goiá-Biguá) - Canção Rancheira
TTITLE6=Quando meu bem me disse adeus (Goiá) - Polca
TTITLE7=Estrela guia (Goiá-Sebastião Vitor) - Guarânia
TTITLE8=Recordação (Goiá-Nenete) - Toada
TTITLE9=Amor e felicidade (Goiá-Zacarias) - Guarânia
TTITLE10=Lamento de uma saudade (Goiá-Zalo) - Polca
TTITLE11=Triste arrependimento (Goiá-Gauchito) - Guarânia
EXTD=
EXTT0=
EXTT1=
EXTT2=
EXTT3=
EXTT4=
EXTT5=
EXTT6=
EXTT7=
EXTT8=
EXTT9=
EXTT10=
EXTT11=
PLAYORDER=
